<svg xmlns="http://www.w3.org/2000/svg" viewBox="0 0 416.17 366.09"><defs><style>.cls-1{isolation:isolate;}.cls-2{fill:#183142;}.cls-3{fill:#dbd59c;}.cls-4{fill:#f4f0c2;}.cls-5{fill:#d8f2f3;mix-blend-mode:overlay;opacity:0.3;}</style></defs><g class="cls-1"><g id="Layer_1" data-name="Layer 1"><path class="cls-2" d="M1061.51,525.88a2,2,0,0,0-3,1.54A148.65,148.65,0,0,1,855,653a148.65,148.65,0,0,0,243.87-103.41,2,2,0,0,0-1-1.85Z" transform="translate(-682.69 -343.49)"/><circle class="cls-2" cx="178.48" cy="182.11" r="130.53"/><path class="cls-3" d="M864.8,351a179.31,179.31,0,1,0,179.31,179.31A179.3,179.3,0,0,0,864.8,351Zm2.81,27.28a44.55,44.55,0,1,1-44.55,44.55A44.55,44.55,0,0,1,867.61,378.24ZM724.55,484.13a44.55,44.55,0,1,1,26.67,57.07A44.55,44.55,0,0,1,724.55,484.13ZM837.88,649.51a44.55,44.55,0,1,1-5.59-62.76A44.54,44.54,0,0,1,837.88,649.51Zm-9.61-120a39.34,39.34,0,1,1,39.34,39.34A39.34,39.34,0,0,1,828.27,529.5ZM960.09,655.1a44.55,44.55,0,1,1,5.59-62.75A44.55,44.55,0,0,1,960.09,655.1ZM984,541.2a44.55,44.55,0,1,1,26.68-57.07A44.55,44.55,0,0,1,984,541.2Z" transform="translate(-682.69 -343.49)"/><path class="cls-4" d="M862,343.49a179.31,179.31,0,1,0,179.31,179.3A179.3,179.3,0,0,0,862,343.49Zm2.8,27.27a44.55,44.55,0,1,1-44.55,44.55A44.55,44.55,0,0,1,864.8,370.76ZM721.74,476.65a44.55,44.55,0,1,1,26.68,57.08A44.56,44.56,0,0,1,721.74,476.65ZM835.08,642a44.55,44.55,0,1,1-5.6-62.75A44.56,44.56,0,0,1,835.08,642Zm-9.62-120a39.34,39.34,0,1,1,39.34,39.34A39.34,39.34,0,0,1,825.46,522ZM957.29,647.63a44.55,44.55,0,1,1,5.59-62.76A44.56,44.56,0,0,1,957.29,647.63Zm23.9-113.9a44.55,44.55,0,1,1,26.67-57.08A44.56,44.56,0,0,1,981.19,533.73Z" transform="translate(-682.69 -343.49)"/><path class="cls-5" d="M862,395.11l-.83,0a130.55,130.55,0,0,0-31.08,3.76A44.55,44.55,0,0,1,862,378.62V343.51A179.3,179.3,0,0,0,695.5,589.37,179.34,179.34,0,0,0,862,709.55ZM730.73,521.93a44.5,44.5,0,0,1-7.24-10.73,44.53,44.53,0,0,1,25.9-53A129.89,129.89,0,0,0,730.73,521.93Zm41.59,125.72a44.25,44.25,0,0,1-11.56-14.92,44.7,44.7,0,0,1,0-23.66A130.6,130.6,0,0,0,824.91,651,44.55,44.55,0,0,1,772.32,647.65Z" transform="translate(-682.69 -343.49)"/></g></g></svg>