<svg xmlns="http://www.w3.org/2000/svg" viewBox="0 0 177.77 196.04"><defs><style>.cls-1{isolation:isolate;}.cls-2{fill:#3bac92;}.cls-3{fill:#fbecc2;}.cls-4{fill:#173144;}.cls-5{fill:#d8f2f3;mix-blend-mode:overlay;opacity:0.3;}.cls-6{fill:#fec500;}.cls-7{fill:#dda300;}.cls-8{fill:#f4f0c2;}.cls-9{fill:#cc290e;}</style></defs><g class="cls-1"><g id="Layer_1" data-name="Layer 1"><path class="cls-2" d="M857.77,609.72h-6.33V491a19.24,19.24,0,0,1,6.9-14.76l21.36-17.86,4.06,4.86-19.09,16a19.25,19.25,0,0,0-6.9,14.76Z" transform="translate(-808.51 -458.36)"/><path class="cls-3" d="M877.62,649.4h-46L815.78,520.8a3.68,3.68,0,0,1,3.65-4.12h70.36a3.67,3.67,0,0,1,3.64,4.12Z" transform="translate(-808.51 -458.36)"/><path class="cls-2" d="M819.43,516.68a3.68,3.68,0,0,0-3.65,4.12L831.6,649.4h7.61L829.14,516.68Z" transform="translate(-808.51 -458.36)"/><path class="cls-2" d="M889.79,516.68h-9.71L870,649.4h7.61l15.81-128.6A3.67,3.67,0,0,0,889.79,516.68Z" transform="translate(-808.51 -458.36)"/><polygon class="cls-2" points="40.96 191.04 51.23 191.04 54.59 58.31 37.61 58.31 40.96 191.04"/><path class="cls-4" d="M894.88,521.32H814.33a5.83,5.83,0,0,1-5.82-5.83h0a5.83,5.83,0,0,1,5.82-5.82h80.55a5.82,5.82,0,0,1,5.82,5.82h0A5.82,5.82,0,0,1,894.88,521.32Z" transform="translate(-808.51 -458.36)"/><path class="cls-5" d="M854.61,480.42A19.21,19.21,0,0,0,851.44,491v18.69H814.33a5.83,5.83,0,0,0,0,11.65h1.52L831.6,649.4h23Z" transform="translate(-808.51 -458.36)"/><path class="cls-6" d="M981.83,536.86a2.54,2.54,0,0,0-.51-2.49,2.74,2.74,0,0,0-.45-.39,2.53,2.53,0,0,0-.59-3.21l-.15-.12a4,4,0,0,1-4.34-1.23,2.53,2.53,0,0,0,0-3.23l-.19-.23a2.55,2.55,0,0,0-3.59-.2,2.67,2.67,0,0,0-.5.63,2.58,2.58,0,0,0-1.58-.09,2.42,2.42,0,0,0-2-1.12,2.5,2.5,0,0,0-1.46-1.87l-.26-.11a2.52,2.52,0,0,0-3.27,1.43,2.35,2.35,0,0,0-.14.52,2.24,2.24,0,0,0-.22-.4,2.48,2.48,0,0,0-.62-.63,2.53,2.53,0,0,0,1.6-2.7c0-.11,0-.22,0-.33a2.54,2.54,0,0,0-3-2.06l-.12,0a2.52,2.52,0,0,0-.65-1.84,2.61,2.61,0,0,0-.47-.41,2.54,2.54,0,0,0-1.23-3.14l-.26-.13a3.87,3.87,0,0,1-5.57-1.08l-.28,0a2.62,2.62,0,0,0-1.23.42,2.28,2.28,0,0,0-.48-.8,2.54,2.54,0,0,0-3.59-.2l-.17.16a1.81,1.81,0,0,1-1.16,3.43,2.23,2.23,0,0,0-.83.26,2.52,2.52,0,0,0-2-1.83l-.23,0a2.55,2.55,0,0,0-2.95,2.06,2.59,2.59,0,0,0,0,.48,2.67,2.67,0,0,0-1.16.3,2.28,2.28,0,0,0-.1-.57,2.55,2.55,0,0,0-1.94-1.75l-.2,0a2.54,2.54,0,0,0,1.5-3.05l0-.14a2.54,2.54,0,0,0-.13-2.86l.22,0a2.52,2.52,0,0,0,1.77-.72h0a2.54,2.54,0,1,0-3.39-3.79l-.17.16a2.52,2.52,0,0,0-.26,3.33,2.13,2.13,0,0,1-2.52-.56,2.54,2.54,0,0,0-.26-3.33l-.22-.21a3.23,3.23,0,0,1-4.74-3.13l-.29-.12a2.54,2.54,0,0,0-3.3,1.41,2.39,2.39,0,0,0-.16.74,2.54,2.54,0,0,0-2.53,0,2.51,2.51,0,0,0-.12-.93,2.54,2.54,0,0,0-3.22-1.6l-.3.11a3.38,3.38,0,0,1-5,3.08l-.2.2a2.54,2.54,0,0,0-.57,2.8,2.51,2.51,0,0,0-1.85.65l-.17.15a2.6,2.6,0,0,0-.69,1.21h-.05l-.17,0a2.55,2.55,0,0,0-3,2,1.09,1.09,0,0,0,0,.18,2.51,2.51,0,0,0-2,.62l-.06,0a2.54,2.54,0,0,0-3.31.06l-.17.16a2.56,2.56,0,0,0-.75,2.05h0l-.1,0a2.56,2.56,0,0,0-1.72.43,2.53,2.53,0,0,0-1.72-.25l-.12,0a2.52,2.52,0,0,0-2,2.06,2.55,2.55,0,0,0-2.84.23l-.1.09a2.46,2.46,0,0,0-.89,1.46,2.55,2.55,0,0,0-1.39,1l-.07.11a2.53,2.53,0,0,0,.08,2.89,2.73,2.73,0,0,0-1.5,1.18,1.92,1.92,0,0,0-.14.29,1.57,1.57,0,0,0,0-.3,2.54,2.54,0,0,0-3.09-1.82l-.31.08a4,4,0,0,1-3.88,3.3l-.17.16a2.52,2.52,0,0,0-.75,1.63,2.55,2.55,0,0,0-2.57,1.38l-.12.25a2.51,2.51,0,0,0,0,2.28l-.11.08a1.29,1.29,0,0,0-.17.16,2.5,2.5,0,0,0-.76,1.89,2.62,2.62,0,0,0-.48,1.27l0,.28a2.51,2.51,0,0,0,.19,1.16,2.46,2.46,0,0,0-.83.5,1.29,1.29,0,0,0-.17.16,4.25,4.25,0,0,1,1.38,6.68l0,.16a2.53,2.53,0,0,0,1.7,2,2.5,2.5,0,0,0,.81.13H878a2.55,2.55,0,0,0,.31,2l.16.24a2.52,2.52,0,0,0,2.1,1.12,2.6,2.6,0,0,0,.4,0,2.44,2.44,0,0,0,.57.93,2.52,2.52,0,0,0,1.82.78h.07a2.53,2.53,0,0,0,1.46,2.55l.24.11a3,3,0,0,1,4.68,1.49l.25.05a2.21,2.21,0,0,0,.51,0,2.52,2.52,0,0,0,1.6-.57l.05.06a2.54,2.54,0,0,0,3.22.35,2.53,2.53,0,0,0,1.84,1.15l.22,0a2.57,2.57,0,0,1,4.43.46l.24,0,.24,0a2.49,2.49,0,0,1,2.49.16,2.56,2.56,0,0,0,1.77-.71l0,0a2.87,2.87,0,0,0,.4-.46,2.51,2.51,0,0,0,2.19,1.61h.19a2.59,2.59,0,0,1,4.46.29h.37a2.49,2.49,0,0,0,1.65-.63,1.56,1.56,0,0,0,.23.28A2.5,2.5,0,0,0,918,556a2.41,2.41,0,0,1,3.28-.13h.3a2.34,2.34,0,0,1,4.16.08,2.6,2.6,0,0,0,.46.69,2.55,2.55,0,0,0,1.83.77,2.59,2.59,0,0,0,1.77-.71l0,0a2.46,2.46,0,0,0,.71-1.11h.09a2.51,2.51,0,0,1,2.67.42h.25a2.55,2.55,0,0,0,2.21-1.32,2.48,2.48,0,0,0,2.24,1.24h.25a2.52,2.52,0,0,0,2.22-1.51,2.56,2.56,0,0,0,1.45.45,2.49,2.49,0,0,0,1.21-.32,2.55,2.55,0,0,0,2.09,1.1h.34a2.54,2.54,0,0,0,2.17-1.42,2.49,2.49,0,0,0,2.3,1.15l.22,0a2.32,2.32,0,0,1,3.19-.48,2.56,2.56,0,0,0,1.77-.71l0,0,.11-.12a2.51,2.51,0,0,0,1.78.74h.29l.19,0a2.5,2.5,0,0,0,2.1-1.59,2.56,2.56,0,0,0,2.44,1l.25,0a2.56,2.56,0,0,0,2-1.92,2.51,2.51,0,0,0,.89.17,2.6,2.6,0,0,0,1.71-.66,2.52,2.52,0,0,0,1.77.72,2.37,2.37,0,0,0,.83-.14l.23-.08a2.86,2.86,0,0,1,4.38-1.88l.21-.12a2.54,2.54,0,0,0,1.06-3.43,2.51,2.51,0,0,0-1.24-1.13,2.56,2.56,0,0,0,1.41-.68l0,0a2.59,2.59,0,0,0,.62-.86,2.53,2.53,0,0,0,4.47,1.19l.16-.21a3.93,3.93,0,0,1,2.37-5.07l0-.28A2.52,2.52,0,0,0,981.83,536.86Z" transform="translate(-808.51 -458.36)"/><path class="cls-6" d="M951.94,510.1a2.55,2.55,0,0,0,1.77-.71l0,0a2.54,2.54,0,0,0-3.4-3.78l-.17.16a2.54,2.54,0,0,0,0,3.58A2.51,2.51,0,0,0,951.94,510.1Z" transform="translate(-808.51 -458.36)"/><path class="cls-6" d="M885.63,511.52a1.75,1.75,0,0,0,1.22-.5h0a1.76,1.76,0,0,0-2.35-2.62l-.12.11a1.74,1.74,0,0,0,0,2.48A1.73,1.73,0,0,0,885.63,511.52Z" transform="translate(-808.51 -458.36)"/><path class="cls-6" d="M970.45,520.84a1.55,1.55,0,0,0,1.09-.45h0a1.58,1.58,0,1,0-2.11-2.34l-.1.1a1.57,1.57,0,0,0,1.1,2.7Z" transform="translate(-808.51 -458.36)"/><path class="cls-7" d="M918,520.22a2.54,2.54,0,0,1-1.78-4.36l.18-.16a2.54,2.54,0,0,1,3.39,3.79l0,0A2.56,2.56,0,0,1,918,520.22Z" transform="translate(-808.51 -458.36)"/><path class="cls-7" d="M957.11,537.84a2.54,2.54,0,0,1-1.77-4.36l.17-.16a2.54,2.54,0,0,1,3.39,3.79h0A2.52,2.52,0,0,1,957.11,537.84Z" transform="translate(-808.51 -458.36)"/><path class="cls-7" d="M955.45,533.58a1.64,1.64,0,0,1-1.15-2.82l.11-.1a1.65,1.65,0,1,1,2.2,2.45h0A1.65,1.65,0,0,1,955.45,533.58Z" transform="translate(-808.51 -458.36)"/><path class="cls-7" d="M902.11,535.25a1.6,1.6,0,0,1-1.18-.5,1.63,1.63,0,0,1,0-2.32l.11-.1a1.65,1.65,0,0,1,2.2,2.45h0A1.65,1.65,0,0,1,902.11,535.25Z" transform="translate(-808.51 -458.36)"/><path class="cls-7" d="M949.72,506.65a1.64,1.64,0,0,1-1.15-2.82.52.52,0,0,1,.11-.1,1.65,1.65,0,0,1,2.2,2.45h0A1.63,1.63,0,0,1,949.72,506.65Z" transform="translate(-808.51 -458.36)"/><path class="cls-8" d="M959.79,654.4H895.23a4.35,4.35,0,0,1-4.3-3.63l-17-101.47a4.36,4.36,0,0,1,4.3-5.08H976.8a4.37,4.37,0,0,1,4.3,5.08l-17,101.47A4.35,4.35,0,0,1,959.79,654.4Z" transform="translate(-808.51 -458.36)"/><polygon class="cls-9" points="70.14 85.86 88.8 196.04 93.44 196.04 77.64 85.86 70.14 85.86"/><polygon class="cls-9" points="88.18 85.86 99.95 196.04 104.59 196.04 95.69 85.86 88.18 85.86"/><polygon class="cls-9" points="106.23 85.86 111.11 196.04 115.74 196.04 113.73 85.86 106.23 85.86"/><polygon class="cls-9" points="122.26 196.04 126.9 196.04 131.77 85.86 124.27 85.86 122.26 196.04"/><polygon class="cls-9" points="142.32 85.86 133.41 196.04 138.05 196.04 149.82 85.86 142.32 85.86"/><polygon class="cls-9" points="160.36 85.86 144.56 196.04 149.2 196.04 167.86 85.86 160.36 85.86"/><path class="cls-4" d="M981.52,551.29h-108a4.76,4.76,0,0,1-4.77-4.76h0a4.77,4.77,0,0,1,4.77-4.77h108a4.77,4.77,0,0,1,4.76,4.77h0A4.76,4.76,0,0,1,981.52,551.29Z" transform="translate(-808.51 -458.36)"/><ellipse class="cls-4" cx="119" cy="140.95" rx="28.57" ry="19.16"/><ellipse class="cls-3" cx="119" cy="140.95" rx="25.76" ry="17.27"/><path class="cls-5" d="M927.51,500l-.13,0a2.54,2.54,0,0,0-3.3,1.41,2.39,2.39,0,0,0-.16.74,2.54,2.54,0,0,0-2.53,0,2.51,2.51,0,0,0-.12-.93,2.54,2.54,0,0,0-3.22-1.6l-.3.11a3.38,3.38,0,0,1-5,3.08l-.2.2a2.54,2.54,0,0,0-.57,2.8,2.51,2.51,0,0,0-1.85.65l-.17.15a2.6,2.6,0,0,0-.69,1.21h-.05l-.17,0a2.55,2.55,0,0,0-3,2,1.09,1.09,0,0,0,0,.18,2.51,2.51,0,0,0-2,.62l-.06,0a2.54,2.54,0,0,0-3.31.06l-.17.16a2.56,2.56,0,0,0-.75,2.05h0l-.1,0a2.56,2.56,0,0,0-1.72.43,2.53,2.53,0,0,0-1.72-.25l-.12,0a2.52,2.52,0,0,0-2,2.06,2.55,2.55,0,0,0-2.84.23l-.1.09a2.46,2.46,0,0,0-.89,1.46,2.55,2.55,0,0,0-1.39,1l-.07.11a2.53,2.53,0,0,0,.08,2.89,2.73,2.73,0,0,0-1.5,1.18,1.92,1.92,0,0,0-.14.29,1.57,1.57,0,0,0,0-.3,2.54,2.54,0,0,0-3.09-1.82l-.31.08a4,4,0,0,1-3.88,3.3l-.17.16a2.52,2.52,0,0,0-.75,1.63,2.55,2.55,0,0,0-2.57,1.38l-.12.25a2.51,2.51,0,0,0,0,2.28l-.11.08a1.29,1.29,0,0,0-.17.16,2.5,2.5,0,0,0-.76,1.89,2.62,2.62,0,0,0-.48,1.27l0,.28a2.51,2.51,0,0,0,.19,1.16,2.46,2.46,0,0,0-.83.5,1.29,1.29,0,0,0-.17.16,4.25,4.25,0,0,1,1.38,6.68l0,.16s0,0,0,.06h-1.92a4.77,4.77,0,1,0,0,9.53h.75l16.67,99.48a4.35,4.35,0,0,0,4.3,3.63h32.28Z" transform="translate(-808.51 -458.36)"/></g></g></svg>