<svg xmlns="http://www.w3.org/2000/svg" viewBox="0 0 267.52 113.01"><defs><style>.cls-1{isolation:isolate;}.cls-2{fill:#163e4c;}.cls-3{fill:#244c56;}.cls-4{fill:#0d2935;}.cls-5{fill:#f4f0c2;}.cls-6{fill:#1ca9f7;}.cls-7{fill:#f83f19;}.cls-8{fill:#d8f2f3;mix-blend-mode:overlay;opacity:0.3;}</style></defs><g class="cls-1"><g id="Layer_1" data-name="Layer 1"><path class="cls-2" d="M901.85,576.15a5,5,0,0,1-4.49-2.85c-8.44-17.95-31.19-17.8-31.39-17.81h-.22L703.4,559.21c-2.74-.08-4.9-10.62-4.82-13.36a5,5,0,0,1,4.95-4.82h.14l162.27,4.54h.1c2.93,0,29.54.65,40.3,23.51a5,5,0,0,1-2.38,6.59A4.81,4.81,0,0,1,901.85,576.15Z" transform="translate(-695.59 -539.94)"/><path class="cls-3" d="M703.53,576.15A5,5,0,0,0,708,573.3c8.45-17.95,31.2-17.8,31.4-17.81h.21L902,559.21c2.74-.08,4.89-10.62,4.82-13.36a5,5,0,0,0-5-4.82h-.14l-162.26,4.54h-.1c-2.93,0-29.54.65-40.3,23.51a5,5,0,0,0,2.38,6.59A4.8,4.8,0,0,0,703.53,576.15Z" transform="translate(-695.59 -539.94)"/><path class="cls-4" d="M904,539.94H831.18a19.78,19.78,0,0,0-5.76.85,74.4,74.4,0,0,1-21.2,3.3h-3.05a74.47,74.47,0,0,1-21.21-3.3,19.66,19.66,0,0,0-5.75-.85H701.42a5.76,5.76,0,0,0-5.81,5,5.59,5.59,0,0,0,5.57,6.14h0a5.59,5.59,0,0,1,5.5,6.3,19.79,19.79,0,0,0,.45,6.88l3.06,12.55A24.49,24.49,0,0,0,734,595.54h32.51a24.49,24.49,0,0,0,23.79-18.69l1.38-5.66A11.89,11.89,0,0,1,802.51,562h.36a11.91,11.91,0,0,1,10.86,9.15l1.38,5.66a24.48,24.48,0,0,0,23.79,18.69h32.51a24.5,24.5,0,0,0,23.79-18.69l3.06-12.55a19.54,19.54,0,0,0,.44-6.88,5.6,5.6,0,0,1,5.51-6.3h0a5.6,5.6,0,0,0,5.57-6.14A5.76,5.76,0,0,0,904,539.94Z" transform="translate(-695.59 -539.94)"/><path class="cls-5" d="M702.54,544c-1.88,0-3.41.55-3.41,1.22s1.53,1.23,3.41,1.23,3.4-.55,3.4-1.23S704.42,544,702.54,544Z" transform="translate(-695.59 -539.94)"/><path class="cls-5" d="M902.85,544c-1.88,0-3.41.55-3.41,1.22s1.53,1.23,3.41,1.23,3.41-.55,3.41-1.23S904.73,544,902.85,544Z" transform="translate(-695.59 -539.94)"/><path class="cls-6" d="M774.21,546.48h-48a14.25,14.25,0,0,0-13.84,17.62l3.07,12.55A19,19,0,0,0,734,591.18h32.51A19,19,0,0,0,785,576.65l3.07-12.55A14.25,14.25,0,0,0,774.21,546.48Z" transform="translate(-695.59 -539.94)"/><path class="cls-7" d="M879.13,546.48h-48a14.25,14.25,0,0,0-13.84,17.62l3.06,12.55a19,19,0,0,0,18.5,14.53h32.51a19,19,0,0,0,18.49-14.53L893,564.1A14.24,14.24,0,0,0,879.13,546.48Z" transform="translate(-695.59 -539.94)"/><path class="cls-2" d="M949.05,639.58a5,5,0,0,1-3.82-3.7c-4.67-19.28-27-23.7-27.17-23.76l-.22,0-159.78-29c-2.67-.63-2.66-11.39-2-14.06a5,5,0,0,1,5.83-3.72l.13,0,158,37.09h.1c2.87.59,28.8,6.58,34.74,31.13a5,5,0,0,1-3.65,6A5.09,5.09,0,0,1,949.05,639.58Z" transform="translate(-695.59 -539.94)"/><path class="cls-3" d="M754.78,599.69a5,5,0,0,0,5-1.89c11.89-15.88,34.14-11.16,34.34-11.13l.21,0L952.59,623c2.7.47,6.93-9.42,7.41-12.12a5,5,0,0,0-3.89-5.71l-.13,0L796.11,577l-.09,0c-2.87-.59-29.07-5.31-44.21,14.92a5,5,0,0,0,3,7.83Z" transform="translate(-695.59 -539.94)"/><path class="cls-4" d="M958.4,604.53l-24.33-5-46.81-9.61-.16,0a20,20,0,0,0-5.81-.32,74.77,74.77,0,0,1-21.43-1l-1.5-.29-1.49-.32a75.4,75.4,0,0,1-20.11-7.5,19.4,19.4,0,0,0-5.46-2l-1.4-.29-45.57-9.36-24.34-5a5.75,5.75,0,0,0-6.7,3.77,5.59,5.59,0,0,0,4.22,7.13h0a5.6,5.6,0,0,1,4.12,7.28,19.75,19.75,0,0,0-.94,6.83l.47,12.91a24.5,24.5,0,0,0,19.55,23.09l31.84,6.54a24.49,24.49,0,0,0,27.06-13.52l2.5-5.27a11.9,11.9,0,0,1,12.47-6.79l.18,0,.17.05A11.9,11.9,0,0,1,863.72,617l.21,5.83a24.5,24.5,0,0,0,19.55,23.09l31.85,6.54a24.5,24.5,0,0,0,27.06-13.52l5.52-11.68a19.75,19.75,0,0,0,1.82-6.65,5.59,5.59,0,0,1,6.66-5.06h0a5.6,5.6,0,0,0,6.69-4.9A5.76,5.76,0,0,0,958.4,604.53Z" transform="translate(-695.59 -539.94)"/><path class="cls-5" d="M760.27,568c-1.84-.38-3.45-.15-3.59.51s1.25,1.51,3.09,1.89,3.45.15,3.59-.52S762.11,568.4,760.27,568Z" transform="translate(-695.59 -539.94)"/><path class="cls-5" d="M956.49,608.31c-1.85-.37-3.45-.14-3.59.52s1.25,1.51,3.09,1.89,3.45.14,3.59-.52S958.33,608.69,956.49,608.31Z" transform="translate(-695.59 -539.94)"/><path class="cls-6" d="M830,584.84l-47-9.64a14.24,14.24,0,0,0-17.09,14.47l.47,12.92a19,19,0,0,0,15.2,17.95l31.84,6.53a19,19,0,0,0,21-10.51L840,604.88A14.24,14.24,0,0,0,830,584.84Z" transform="translate(-695.59 -539.94)"/><path class="cls-7" d="M932.75,606l-47-9.65a14.24,14.24,0,0,0-17.09,14.47l.47,12.92a19,19,0,0,0,15.2,17.95l31.84,6.54a19,19,0,0,0,21-10.51L942.76,626A14.23,14.23,0,0,0,932.75,606Z" transform="translate(-695.59 -539.94)"/><path class="cls-8" d="M829.35,540a20.54,20.54,0,0,0-3.93.76,76.67,76.67,0,0,1-12.79,2.74l-9.94.27-9.94-.27A77.1,77.1,0,0,1,780,540.79a19.66,19.66,0,0,0-5.75-.85H701.42a5.76,5.76,0,0,0-5.81,5,5.59,5.59,0,0,0,3.63,5.79c.84,3.89,2.37,8.39,4.16,8.44l2.42-.06a37.43,37.43,0,0,0-6.77,9.93,5,5,0,0,0,2.38,6.59,4.8,4.8,0,0,0,2.1.48A5,5,0,0,0,708,573.3c.28-.59.58-1.16.89-1.72l1.28,5.27A24.49,24.49,0,0,0,734,595.54h16.9a5,5,0,0,0,8.87,2.26c.4-.52.8-1,1.21-1.5l.2,5.42a24.5,24.5,0,0,0,19.55,23.09l31.84,6.54a24.41,24.41,0,0,0,16.8-2.6ZM791.9,570.35A11.88,11.88,0,0,1,802.51,562h.36a11.91,11.91,0,0,1,10.86,9.15l.93,3.83Z" transform="translate(-695.59 -539.94)"/></g></g></svg>