<svg id="Layer_1" data-name="Layer 1" xmlns="http://www.w3.org/2000/svg" viewBox="0 0 253.71 253.97"><defs><style>.cls-1{fill:#ffd100;}.cls-2{fill:#fff;}.cls-3{fill:#ef9127;}.cls-4{fill:#dbedf3;}</style></defs><path class="cls-1" d="M780.49,467.47l115.91-86a13.31,13.31,0,0,1,15.94,0l114.16,86Z" transform="translate(-776.64 -378.85)"/><rect class="cls-1" y="87.5" width="253.71" height="166.47" rx="8.08"/><path class="cls-2" d="M1018.89,477.36,992.23,498l-.35.27L970.25,515,954.63,527.1,922.1,552.28l-6.26,4.85L912.36,555a16.88,16.88,0,0,0-17.71.06l-3.46,2.15L885.71,553l-33.65-25.9L836.35,515l-21.74-16.74-4-3.06-23.19-17.85Z" transform="translate(-776.64 -378.85)"/><path class="cls-3" d="M1021.4,621.62,915.84,557.13,912.36,555a16.88,16.88,0,0,0-17.71.06l-3.46,2.15-103.75,64.4L885.71,553l8.64-6a16.86,16.86,0,0,1,20.14,0l7.61,5.31Z" transform="translate(-776.64 -378.85)"/><rect class="cls-2" x="10.8" y="23.15" width="231.45" height="75.37"/><rect class="cls-4" x="34" y="49.69" width="181.6" height="12.09"/><rect class="cls-4" x="34" y="78.51" width="181.6" height="12.09"/><polygon class="cls-4" points="215.6 107.34 215.6 119.15 215.25 119.42 37.98 119.42 34 116.36 34 107.34 215.6 107.34"/><polygon class="cls-4" points="193.62 136.16 178 148.25 75.43 148.25 59.72 136.16 193.62 136.16"/></svg>