<svg xmlns="http://www.w3.org/2000/svg" viewBox="0 0 168.64 172.65"><defs><style>.cls-1{isolation:isolate;}.cls-2{fill:#3bac92;}.cls-3{fill:#183142;}.cls-4{fill:#f4f0c2;}.cls-5{fill:#163546;}.cls-6{fill:#d8f2f3;mix-blend-mode:overlay;opacity:0.3;}</style></defs><g class="cls-1"><g id="Layer_1" data-name="Layer 1"><path class="cls-2" d="M723,437.77H566.74a4.11,4.11,0,0,0-4.11,4.11V552.69a9.25,9.25,0,0,0,9.25,9.25h146a9.25,9.25,0,0,0,9.25-9.25V441.88A4.11,4.11,0,0,0,723,437.77Z" transform="translate(-558.94 -389.29)"/><rect class="cls-2" x="562.44" y="403.6" width="164.87" height="22.14" rx="3.52" transform="translate(-611.13 -293.85) rotate(-8.14)"/><path class="cls-3" d="M4.57,45.25H160.85A4.11,4.11,0,0,1,165,49.36V160.18a9.25,9.25,0,0,1-9.25,9.25H9.72a9.25,9.25,0,0,1-9.25-9.25V49.36A4.11,4.11,0,0,1,4.57,45.25Z"/><path class="cls-4" d="M573.29,439.58l-9.36,14a1.44,1.44,0,0,0,1.2,2.25h12.65a1.45,1.45,0,0,0,1.2-.64l9.36-14a1.45,1.45,0,0,0-1.2-2.25H574.49A1.44,1.44,0,0,0,573.29,439.58Z" transform="translate(-558.94 -389.29)"/><path class="cls-4" d="M599.49,439.58l-9.36,14a1.45,1.45,0,0,0,1.21,2.25H604a1.45,1.45,0,0,0,1.21-.64l9.36-14a1.45,1.45,0,0,0-1.21-2.25H600.69A1.45,1.45,0,0,0,599.49,439.58Z" transform="translate(-558.94 -389.29)"/><path class="cls-4" d="M625.7,439.58l-9.36,14a1.45,1.45,0,0,0,1.2,2.25h12.65a1.44,1.44,0,0,0,1.2-.64l9.36-14a1.45,1.45,0,0,0-1.2-2.25H626.9A1.44,1.44,0,0,0,625.7,439.58Z" transform="translate(-558.94 -389.29)"/><path class="cls-4" d="M651.9,439.58l-9.36,14a1.45,1.45,0,0,0,1.21,2.25h12.64a1.45,1.45,0,0,0,1.21-.64l9.36-14a1.45,1.45,0,0,0-1.21-2.25H653.11A1.45,1.45,0,0,0,651.9,439.58Z" transform="translate(-558.94 -389.29)"/><path class="cls-4" d="M678.11,439.58l-9.36,14a1.45,1.45,0,0,0,1.2,2.25H682.6a1.44,1.44,0,0,0,1.2-.64l9.36-14a1.45,1.45,0,0,0-1.2-2.25H679.31A1.45,1.45,0,0,0,678.11,439.58Z" transform="translate(-558.94 -389.29)"/><path class="cls-4" d="M704.31,439.58l-9.36,14a1.45,1.45,0,0,0,1.21,2.25h12.65a1.45,1.45,0,0,0,1.2-.64l9.36-14a1.45,1.45,0,0,0-1.2-2.25H705.52A1.45,1.45,0,0,0,704.31,439.58Z" transform="translate(-558.94 -389.29)"/><rect class="cls-5" x="559.21" y="400.38" width="164.87" height="22.14" rx="3.52" transform="translate(-610.71 -294.34) rotate(-8.14)"/><path class="cls-4" d="M572.89,413.32l-7.4,15.48a1.33,1.33,0,0,0,1.38,1.89l12.81-1.83a1.34,1.34,0,0,0,1-.74l7.41-15.49a1.33,1.33,0,0,0-1.39-1.88l-12.81,1.83A1.33,1.33,0,0,0,572.89,413.32Z" transform="translate(-558.94 -389.29)"/><path class="cls-4" d="M598.84,409.61l-7.41,15.49a1.33,1.33,0,0,0,1.39,1.88l12.81-1.83a1.32,1.32,0,0,0,1-.74L614,408.92a1.33,1.33,0,0,0-1.39-1.88l-12.81,1.83A1.32,1.32,0,0,0,598.84,409.61Z" transform="translate(-558.94 -389.29)"/><path class="cls-4" d="M624.78,405.9l-7.41,15.49a1.33,1.33,0,0,0,1.39,1.88l12.81-1.83a1.33,1.33,0,0,0,1-.74l7.4-15.48a1.33,1.33,0,0,0-1.38-1.89l-12.81,1.83A1.32,1.32,0,0,0,624.78,405.9Z" transform="translate(-558.94 -389.29)"/><path class="cls-4" d="M650.72,402.19l-7.4,15.49a1.32,1.32,0,0,0,1.38,1.88l12.81-1.83a1.32,1.32,0,0,0,1-.74l7.4-15.48a1.33,1.33,0,0,0-1.38-1.89l-12.81,1.83A1.34,1.34,0,0,0,650.72,402.19Z" transform="translate(-558.94 -389.29)"/><path class="cls-4" d="M676.66,398.49,669.26,414a1.32,1.32,0,0,0,1.38,1.88L683.45,414a1.32,1.32,0,0,0,1-.74l7.4-15.48a1.33,1.33,0,0,0-1.38-1.89l-12.81,1.83A1.35,1.35,0,0,0,676.66,398.49Z" transform="translate(-558.94 -389.29)"/><path class="cls-4" d="M702.6,394.78l-7.4,15.48a1.33,1.33,0,0,0,1.38,1.89l12.81-1.84a1.32,1.32,0,0,0,1-.74l7.4-15.48a1.33,1.33,0,0,0-1.38-1.89L703.61,394A1.32,1.32,0,0,0,702.6,394.78Z" transform="translate(-558.94 -389.29)"/><rect class="cls-4" x="9.85" y="122.67" width="145.71" height="3.23"/><rect class="cls-4" x="9.85" y="138.01" width="145.71" height="3.23"/><rect class="cls-4" x="9.85" y="153.34" width="145.71" height="3.23"/><path class="cls-6" d="M643.26,434.54H584.1l59.16-8.46V400L562,411.66a3.53,3.53,0,0,0-3,4l2.14,14.94a3.52,3.52,0,0,0,3.19,3l0,.22a3,3,0,0,0,.19.73h-1a4.11,4.11,0,0,0-4.11,4.11V549.46a17.31,17.31,0,0,0,12.48,12.48h71.38Z" transform="translate(-558.94 -389.29)"/></g></g></svg>