<svg id="Layer_1" data-name="Layer 1" xmlns="http://www.w3.org/2000/svg" viewBox="0 0 488.93 382.29"><defs><style>.cls-1{fill:#6e018a;}.cls-2{fill:#ffca61;}.cls-3{opacity:0.52;}.cls-4{fill:#d12a6a;}.cls-5{opacity:0.33;}.cls-6{fill:#fff;}.cls-7{opacity:0.61;}.cls-8{fill:#fff064;}</style></defs><path class="cls-1" d="M769.06,526.65a11.82,11.82,0,0,1-1.74-17.1c29.64-29.26,109.3-148.2,125.11-186.74a11.2,11.2,0,0,1,19.19-1.5c20.83,29.13,72.54,90.8,155.07,121.77,74.26,27.87,128.91,33.46,156.7,34.14,8.83.22,14.08,10.2,9.36,17.87L1128.28,664.9c-20.12,15.1-155.38-11.75-216.44-43.45C852.72,588.69,792.43,544.35,769.06,526.65Z" transform="translate(-764.44 -289.54)"/><path class="cls-1" d="M1075.26,610.55c28.82-7.17,39.15,24,53.62,5l39.91-64.87a13.42,13.42,0,0,0-4-18.15c-23.35-14.3-13.49-37.4-29-41.51-63.41-12.14-151.65-52.24-193.23-96.24a12.7,12.7,0,0,0-15.23-1.52,42.59,42.59,0,0,1-35.13,3.61,12.76,12.76,0,0,0-15.12,5.47c-13,21.63-28.79,44.84-44.1,65.27-12,16.78,23.57,26.38,7.11,64.83a13.49,13.49,0,0,0,4.39,16.87c56.36,40.24,118.46,74.5,191.24,84.39C1049.93,636.09,1052.15,613.87,1075.26,610.55Z" transform="translate(-764.44 -289.54)"/><path class="cls-1" d="M928,454.77c.31,2.84-1.85,12.79,1.24,14.6,3.32,2.95,16.3,9.64,7.31,14.08-2.59,1.19-12.48,2.18-13.17,5.73-1.67,4-3.82,18.9-10.79,11.47l-6-9.19c-3.19-5.25-22.45,2.89-17.35-8.86,1.41-2.51,8.84-9.27,7.37-12.57-.92-4.28-7.75-17.55,2.16-15.79,2.74.58,11.31,5.76,13.93,3.3C916.51,455.24,926.6,444.58,928,454.77Z" transform="translate(-764.44 -289.54)"/><path class="cls-1" d="M1070.51,527.24c.31,2.84-1.85,12.79,1.24,14.61,3.32,2.94,16.3,9.63,7.31,14.08-2.59,1.18-12.48,2.17-13.17,5.72-1.67,4-3.82,18.9-10.79,11.48l-6-9.2c-3.19-5.24-22.45,2.89-17.35-8.86,1.41-2.51,8.84-9.27,7.37-12.57-.92-4.28-7.75-17.55,2.16-15.79,2.74.58,11.31,5.76,13.93,3.3C1059,527.72,1069.06,517.05,1070.51,527.24Z" transform="translate(-764.44 -289.54)"/><path class="cls-1" d="M1001.6,481.36c.45,4.05-2.63,18.24,1.77,20.83l12.33,9.43a6.09,6.09,0,0,1-1.91,10.64c-3.69,1.69-17.79,3.1-18.77,8.16l-4.94,15a5.82,5.82,0,0,1-10.45,1.41l-8.56-13.11a5.88,5.88,0,0,0-4.81-2.67l-15.39-.2a6,6,0,0,1-4.54-9.76c2-3.58,12.6-13.22,10.5-17.92l-4.57-15.07a6,6,0,0,1,7.65-7.45c3.91.83,16.12,8.22,19.86,4.71l12.56-9.11A5.88,5.88,0,0,1,1001.6,481.36Z" transform="translate(-764.44 -289.54)"/><path class="cls-1" d="M1144.28,510.18c-5.8,1.3-10.85-5.17-8.39-10.63,3.64-8.76,5.72-14.54,5.74-14.6,3.32-9.54,17.7-3.94,14.17,5.34-.09.25-2.22,6.17-6,15.32A7.59,7.59,0,0,1,1144.28,510.18Z" transform="translate(-764.44 -289.54)"/><path class="cls-1" d="M1081.74,608c-7.13,1.66-12.11-8.13-6.74-13.13,6.85-6.88,13.28-13.95,19.11-21a7.43,7.43,0,0,1,10.64-.91,7.88,7.88,0,0,1,.88,10.91C1098.24,591.54,1091.54,602.71,1081.74,608Zm36.44-45.39c-6.3,1.45-11.42-6.27-7.85-11.69,4.56-7.5,9.16-16,13.68-25.12a7.46,7.46,0,0,1,10.14-3.42,7.84,7.84,0,0,1,3.33,10.4C1131.91,541.72,1126.51,559.43,1118.18,562.63Z" transform="translate(-764.44 -289.54)"/><path class="cls-1" d="M1048,637.65c-7.74,1.8-12.42-9.51-5.81-13.93,0,0,4.76-3.46,11.95-9.55,7.6-6.53,17.21,5.8,9.61,11.94C1053,634.62,1053.06,635.75,1048,637.65Z" transform="translate(-764.44 -289.54)"/><path class="cls-2" d="M1250.66,514.37l-6.41,7.72L1123.78,667.28a11.16,11.16,0,0,1-11.06,3.84c-116.31-18.72-232-90.18-318.13-185.56-7.65-6.45-15.87-16-6.66-24.52,46.42-38,122.38-124,149.63-166.67a11.2,11.2,0,0,1,19.2,1.31C983.2,361.1,1085.39,452.17,1182,478.8c26.62,9.32,47.68,14.09,61.82,16.52C1252.57,496.82,1256.38,507.46,1250.66,514.37Z" transform="translate(-764.44 -289.54)"/><g class="cls-3"><path class="cls-4" d="M1040.41,628.27c-88.79-25.78-122.06-57.41-184.73-113.2-15.81-15.28,6.53-29.43,3.59-47.24.43-15.07-17.49-28.42-3.86-42a771.36,771.36,0,0,0,52.38-57.89,17.3,17.3,0,0,1,21.45-4.4,37.72,37.72,0,0,0,31.39,1.35A17.38,17.38,0,0,1,980.89,370c29.58,36.68,64.2,66.09,102.9,87.41A624.79,624.79,0,0,0,1157,491.92a17.83,17.83,0,0,1,11.15,16.65,39.85,39.85,0,0,0,13.26,29.53,18.21,18.21,0,0,1,1.88,25c-8.36,6.85-48.69,67.52-61.5,64.83-15.53-.26-18.87-19.31-42.69-17.48C1058.4,610.57,1055.15,627.54,1040.41,628.27ZM921.2,370.89a8,8,0,0,0-6.2,2.94,774.11,774.11,0,0,1-53,58.53c-7.9,7.45,7.53,20,6.53,35,2.62,20.74-15.72,32.48-6.61,40.82,61.47,55,89.8,81.79,176,110.36a8,8,0,0,0,8.47-2.37,47.21,47.21,0,0,1,32.12-15.06h0c30.08-2.81,37.91,26.55,49,14.43,80.85-98.54,43.63-39,31.24-104.87.26-4.17-1.31-8.66-5.29-10.08C1085.36,474,1020.8,436.23,973.64,375.85c-6.72-7.36-16.45,2.18-24.79,1.07C939,378.15,930.2,373.45,921.2,370.89Z" transform="translate(-764.44 -289.54)"/></g><path class="cls-1" d="M954.58,430.17c-.08,2.87-3.59,12.41-.79,14.64,2.86,3.38,14.82,11.91,5.29,15-2.71.8-12.64.34-13.82,3.76-2.17,3.67-6.49,18.17-12.27,9.79l-4.67-10c-2.48-5.65-22.64-.41-16-11.29,1.74-2.28,10-7.9,9-11.37-.31-4.35-5.26-18.5,4.32-15.32,2.63,1,10.39,7.35,13.33,5.3C943.17,429,954.51,419.87,954.58,430.17Z" transform="translate(-764.44 -289.54)"/><path class="cls-1" d="M1085.61,522.62c-.09,2.86-3.6,12.4-.79,14.64,2.85,3.37,14.81,11.9,5.28,15-2.71.8-12.64.34-13.82,3.75-2.17,3.68-6.49,18.17-12.27,9.79l-4.67-10c-2.48-5.66-22.63-.42-15.95-11.3,1.74-2.28,10-7.9,9-11.37-.32-4.34-5.27-18.5,4.31-15.32,2.63,1,10.39,7.35,13.34,5.3C1074.19,521.4,1085.53,512.31,1085.61,522.62Z" transform="translate(-764.44 -289.54)"/><path class="cls-1" d="M1023.73,467.18c-.12,4.09-5.13,17.69-1.12,20.88l10.9,11.13a6.07,6.07,0,0,1-3.37,10.25c-3.87,1.15-18,.49-19.7,5.36-3.33,5.37-8.84,25.81-17.5,14l-6.66-14.22a5.91,5.91,0,0,0-4.4-3.35l-15.19-2.43a6.08,6.08,0,0,1-3.16-10.32c2.48-3.26,14.31-11.27,12.88-16.22L974,466.65a5.91,5.91,0,0,1,8.59-6.27c3.75,1.38,14.82,10.47,19,7.55l13.69-7.2A5.92,5.92,0,0,1,1023.73,467.18Z" transform="translate(-764.44 -289.54)"/><g class="cls-5"><path class="cls-4" d="M1250.66,514.37c-5.33.78-131.22,169.7-137.94,156.75-123.64-19.43-240.21-98.18-325.44-192.9a11.81,11.81,0,0,1,.65-17.18c6.37-5.5,15.8-13.93,28-25.6,30,35.19,243.49,206.18,249.3,184.06,0,0,72.68-68.56,116.79-140.7,26.62,9.32,47.68,14.09,61.82,16.52C1252.57,496.82,1256.38,507.46,1250.66,514.37Z" transform="translate(-764.44 -289.54)"/></g><path class="cls-6" d="M1161,516.45c-5.93.44-10-6.7-6.84-11.75,4.81-8.14,7.67-13.56,7.7-13.61,4.63-9,18.06-1.3,13.29,7.35-.13.23-3.05,5.78-8.07,14.29A7.54,7.54,0,0,1,1161,516.45Z" transform="translate(-764.44 -289.54)"/><path class="cls-6" d="M1085.56,604.22c-7.26.61-10.87-9.81-4.86-14,7.73-5.82,15.08-11.89,21.82-18a7.43,7.43,0,0,1,10.66.64,7.88,7.88,0,0,1-.63,10.93C1104.17,590.3,1096,600.39,1085.56,604.22Zm42.35-39.64c-6.43.51-10.44-7.86-6.16-12.72,5.55-6.76,11.27-14.45,17-22.88a7.43,7.43,0,0,1,10.51-1.91,7.87,7.87,0,0,1,1.86,10.79C1144.41,545.85,1136.57,562.64,1127.91,564.58Z" transform="translate(-764.44 -289.54)"/><path class="cls-6" d="M1048.05,628.64c-7.88.66-11-11.2-3.82-14.63,0,0,5.19-2.74,13.15-7.72a7.43,7.43,0,0,1,10.37,2.57,7.87,7.87,0,0,1-2.51,10.65C1053.42,626.37,1053.34,627.49,1048.05,628.64Z" transform="translate(-764.44 -289.54)"/><g class="cls-7"><path class="cls-8" d="M1250.66,514.37l-6.41,7.72C1059.31,462.38,972.49,362.35,950.7,333.82a8.3,8.3,0,0,0-12.53-.75c-19.43,19.42-121.46,123.21-143.58,152.5-7.64-6.45-15.88-16-6.66-24.53,6.37-5.5,15.8-13.93,28-25.6,38.5-34.11,101-109,121.62-141.07a11.2,11.2,0,0,1,19.2,1.31C983.05,360.93,1085.49,452.26,1182,478.8c26.62,9.32,47.68,14.09,61.82,16.52C1252.57,496.82,1256.38,507.46,1250.66,514.37Z" transform="translate(-764.44 -289.54)"/></g></svg>